<?xml version="1.0" encoding="UTF-8" standalone="no"?>
<!DOCTYPE svg PUBLIC "-//W3C//DTD SVG 1.1//EN" "http://www.w3.org/Graphics/SVG/1.1/DTD/svg11.dtd">
<!-- Generated by Microsoft Visio, SVG Export Page-1.svg Page-1 -->
<svg xmlns="http://www.w3.org/2000/svg" xmlns:xlink="http://www.w3.org/1999/xlink" xmlns:ev="http://www.w3.org/2001/xml-events"
		xmlns:v="http://schemas.microsoft.com/visio/2003/SVGExtensions/" width="5.32813in" height="7.38308in"
		viewBox="0 0 383.625 531.582" xml:space="preserve" color-interpolation-filters="sRGB" class="st14">
	<v:documentProperties v:langID="1033" v:viewMarkup="false"/>

	<style type="text/css">
	<![CDATA[
		.st1 {fill:#ffffff;stroke:#000000;stroke-linecap:round;stroke-linejoin:round;stroke-width:1.5}
		.st2 {fill:#ffffff;stroke:#000000;stroke-linecap:round;stroke-linejoin:round;stroke-width:0.75}
		.st3 {fill:#000000;font-family:Arial;font-size:1.33333em}
		.st4 {font-size:1em}
		.st5 {fill:#ffffff;stroke:#000000;stroke-linecap:round;stroke-linejoin:round;stroke-width:1.25}
		.st6 {fill:none}
		.st7 {stroke:#000000;stroke-linecap:round;stroke-linejoin:round;stroke-width:0.999999}
		.st8 {fill:none;stroke:none;stroke-linecap:round;stroke-linejoin:round;stroke-width:0.75}
		.st9 {fill:#000000;font-family:Arial;font-size:1.99999em;font-weight:bold}
		.st10 {fill:#000000;font-family:Arial;font-size:0.666664em;font-weight:bold}
		.st11 {fill:#000000;font-family:Arial;font-size:1.00001em}
		.st12 {fill:none;stroke:#000000;stroke-linecap:round;stroke-linejoin:round;stroke-width:1.25}
		.st13 {stroke:#000000;stroke-dasharray:0.999999,2;stroke-linecap:round;stroke-linejoin:round;stroke-width:0.999999}
		.st14 {fill:none;fill-rule:evenodd;font-size:12px;overflow:visible;stroke-linecap:square;stroke-miterlimit:3}
	]]>
	</style>

	<g v:mID="0" v:index="1" v:groupContext="foregroundPage">
		<title>Page-1</title>
		<v:pageProperties v:drawingScale="1" v:pageScale="1" v:drawingUnits="0" v:shadowOffsetX="8.99999"
				v:shadowOffsetY="-8.99999"/>
		<g id="group1-1" transform="translate(0.375,-0.375)" v:mID="1" v:groupContext="group">
			<title>Sheet.1</title>
			<g id="shape2-2" v:mID="2" v:groupContext="shape" transform="translate(95.2213,-80.457)">
				<title>Rectangle.35</title>
				<v:userDefs>
					<v:ud v:nameU="visVersion" v:val="VT0(15):26"/>
				</v:userDefs>
				<rect x="0" y="81.5821" width="287.279" height="450" class="st1"/>
			</g>
			<g id="shape3-4" v:mID="3" v:groupContext="shape" transform="translate(271.2,-89.6249)">
				<title>Box.55</title>
				<desc>Base Platform PL Logic</desc>
				<v:userDefs>
					<v:ud v:nameU="visVersion" v:val="VT0(15):26"/>
				</v:userDefs>
				<v:textBlock v:margins="rect(4,4,4,4)"/>
				<v:textRect cx="46.65" cy="468.582" width="93.3" height="126"/>
				<rect x="0" y="405.582" width="93.2999" height="126" class="st2"/>
				<text x="28.42" y="444.58" class="st3" v:langID="1033"><v:paragraph v:horizAlign="1"/><v:tabList/>Base<v:lf/><tspan
							x="16.87" dy="1.2em" class="st4">Platform<v:lf/></tspan><tspan x="15.52" dy="1.2em" class="st4">PL Logic</tspan><v:newlineChar/></text>			</g>
			<g id="shape4-9" v:mID="4" v:groupContext="shape" transform="translate(-1.53477E-012,-80.6249)">
				<title>Rectangle.47</title>
				<v:userDefs>
					<v:ud v:nameU="visVersion" v:val="VT0(15):26"/>
				</v:userDefs>
				<rect x="0" y="144.582" width="89.9999" height="387" class="st2"/>
			</g>
			<g id="group5-11" transform="translate(238.5,-132.81)" v:mID="5" v:groupContext="group">
				<title>Sheet.5</title>
				<g id="shape6-12" v:mID="6" v:groupContext="shape" transform="translate(45.75,1043.16) rotate(180)">
					<title>Rounded Rectangle</title>
					<v:userDefs>
						<v:ud v:nameU="CTypeTopLeftSnip" v:prompt="" v:val="VT0(0):5"/>
						<v:ud v:nameU="CTypeTopRightSnip" v:prompt="" v:val="VT0(0):5"/>
						<v:ud v:nameU="CTypeBotLeftSnip" v:prompt="" v:val="VT0(0):5"/>
						<v:ud v:nameU="CTypeBotRightSnip" v:prompt="" v:val="VT0(0):5"/>
						<v:ud v:nameU="CornerLockHoriz" v:prompt="" v:val="VT0(1):5"/>
						<v:ud v:nameU="CornerLockVert" v:prompt="" v:val="VT0(1):5"/>
						<v:ud v:nameU="CornerLockDiag" v:prompt="" v:val="VT0(0):5"/>
						<v:ud v:nameU="TopLeftOffset" v:prompt="" v:val="VT0(0):26"/>
						<v:ud v:nameU="TopRightOffset" v:prompt="" v:val="VT0(0):26"/>
						<v:ud v:nameU="BotLeftOffset" v:prompt="" v:val="VT0(0):26"/>
						<v:ud v:nameU="BotRightOffset" v:prompt="" v:val="VT0(0):26"/>
						<v:ud v:nameU="visVersion" v:prompt="" v:val="VT0(15):26"/>
					</v:userDefs>
					<path d="M4.58 531.58 L41.18 531.58 A4.57493 4.57493 -180 0 0 45.75 527 L45.75 516.15 A4.57493 4.57493 -180 0
								 0 41.18 511.58 L4.58 511.58 A4.57493 4.57493 -180 0 0 -0 516.15 L0 527 A4.57493 4.57493 -180 0 0
								 4.58 531.58 Z" class="st5"/>
				</g>
			</g>
			<g id="shape7-14" v:mID="7" v:groupContext="shape" transform="translate(113.25,0)">
				<title>Box</title>
				<desc>External Memory</desc>
				<v:userDefs>
					<v:ud v:nameU="visVersion" v:val="VT0(15):26"/>
				</v:userDefs>
				<v:textBlock v:margins="rect(4,4,4,4)"/>
				<v:textRect cx="126" cy="495.582" width="252" height="72"/>
				<rect x="0" y="459.582" width="252" height="72" class="st2"/>
				<text x="65.54" y="500.38" class="st3" v:langID="1033"><v:paragraph v:horizAlign="1"/><v:tabList/>External Memory</text>			</g>
			<g id="shape8-17" v:mID="8" v:groupContext="shape" transform="translate(152.625,-89.9999)">
				<title>Box.154</title>
				<desc>External Memory Controller</desc>
				<v:userDefs>
					<v:ud v:nameU="visVersion" v:val="VT0(15):26"/>
				</v:userDefs>
				<v:textBlock v:margins="rect(4,4,4,4)"/>
				<v:textRect cx="40.5" cy="479.832" width="81" height="103.5"/>
				<rect x="0" y="428.082" width="80.9999" height="103.5" class="st2"/>
				<text x="11.15" y="465.43" class="st3" v:langID="1033"><v:paragraph v:horizAlign="1"/><v:tabList/>External <tspan
							x="11.61" dy="1.2em" class="st4">Memory<v:lf/></tspan><tspan x="5.82" dy="1.2em" class="st4">Controller</tspan></text>			</g>
			<g id="shape9-22" v:mID="9" v:groupContext="shape" transform="translate(104.25,-89.9999)">
				<title>Box.155</title>
				<desc>PS MIO</desc>
				<v:userDefs>
					<v:ud v:nameU="visVersion" v:val="VT0(15):26"/>
				</v:userDefs>
				<v:textBlock v:margins="rect(4,4,4,4)"/>
				<v:textRect cx="20.1" cy="432.582" width="40.21" height="198"/>
				<rect x="0" y="333.582" width="40.2" height="198" class="st2"/>
				<text x="9.43" y="427.78" class="st3" v:langID="1033"><v:paragraph v:horizAlign="1"/><v:tabList/>PS <tspan x="4.99"
							dy="1.2em" class="st4">MIO</tspan></text>			</g>
			<g id="shape10-26" v:mID="10" v:groupContext="shape" transform="translate(96.4499,-350.997) rotate(0.129336)">
				<title>Sheet.10</title>
				<path d="M0 531.58 L166.13 531.58 L0 531.58 Z" class="st6"/>
				<path d="M0 531.58 L166.13 531.58" class="st7"/>
			</g>
			<g id="shape11-29" v:mID="11" v:groupContext="shape" transform="translate(149.25,-315)">
				<title>Sheet.11</title>
				<desc>PS</desc>
				<v:userDefs/>
				<v:textBlock v:margins="rect(4,4,4,4)"/>
				<v:textRect cx="20.1" cy="521.582" width="40.21" height="20"/>
				<rect x="0" y="511.582" width="40.2" height="20" class="st8"/>
				<text x="4.09" y="528.78" class="st9" v:langID="1033"><v:paragraph v:horizAlign="1"/><v:tabList/>PS</text>			</g>
			<g id="shape12-32" v:mID="12" v:groupContext="shape" transform="translate(324.3,-505.957)">
				<title>Sheet.12</title>
				<desc>PL</desc>
				<v:userDefs/>
				<v:textBlock v:margins="rect(4,4,4,4)"/>
				<v:textRect cx="20.1" cy="521.582" width="40.21" height="20"/>
				<rect x="0" y="511.582" width="40.2" height="20" class="st8"/>
				<text x="4.77" y="528.78" class="st9" v:langID="1033"><v:paragraph v:horizAlign="1"/><v:tabList/>PL</text>			</g>
			<g id="shape13-35" v:mID="13" v:groupContext="shape" transform="translate(156.3,-216)">
				<title>Box.176</title>
				<desc>Arm PS Cores</desc>
				<v:userDefs>
					<v:ud v:nameU="visVersion" v:val="VT0(15):26"/>
				</v:userDefs>
				<v:textBlock v:margins="rect(4,4,4,4)"/>
				<v:textRect cx="34.875" cy="495.582" width="69.75" height="72"/>
				<rect x="0" y="459.582" width="69.75" height="72" class="st2"/>
				<text x="20.21" y="481.18" class="st3" v:langID="1033"><v:paragraph v:horizAlign="1"/><v:tabList/>Arm<v:lf/><tspan
							x="24.2" dy="1.2em" class="st4">PS </tspan><tspan x="13.54" dy="1.2em" class="st4">Cores</tspan></text>			</g>
			<g id="shape15-40" v:mID="15" v:groupContext="shape" transform="translate(104.25,-412)">
				<title>Sheet.15</title>
				<desc>APPLICATION CODE ACCELERATOR PL LOGIC</desc>
				<v:userDefs/>
				<v:textBlock v:margins="rect(4,4,4,4)"/>
				<v:textRect cx="135" cy="521.582" width="270" height="20"/>
				<rect x="0" y="511.582" width="270" height="20" class="st8"/>
				<text x="56.76" y="507.18" class="st3" v:langID="1033"><v:paragraph v:horizAlign="1"/><v:tabList/>APPLICATION CODE<v:lf/><tspan
							x="72.77" dy="1.2em" class="st4"> </tspan>ACCELERATOR<v:lf/><tspan x="98.1" dy="1.2em" class="st4">PL LOGIC</tspan></text>			</g>
			<g id="group16-45" transform="translate(238.5,-256.123)" v:mID="16" v:groupContext="group">
				<title>Sheet.16</title>
				<g id="shape17-46" v:mID="17" v:groupContext="shape" transform="translate(45.75,1043.16) rotate(180)">
					<title>Rounded Rectangle</title>
					<v:userDefs>
						<v:ud v:nameU="CTypeTopLeftSnip" v:prompt="" v:val="VT0(0):5"/>
						<v:ud v:nameU="CTypeTopRightSnip" v:prompt="" v:val="VT0(0):5"/>
						<v:ud v:nameU="CTypeBotLeftSnip" v:prompt="" v:val="VT0(0):5"/>
						<v:ud v:nameU="CTypeBotRightSnip" v:prompt="" v:val="VT0(0):5"/>
						<v:ud v:nameU="CornerLockHoriz" v:prompt="" v:val="VT0(1):5"/>
						<v:ud v:nameU="CornerLockVert" v:prompt="" v:val="VT0(1):5"/>
						<v:ud v:nameU="CornerLockDiag" v:prompt="" v:val="VT0(0):5"/>
						<v:ud v:nameU="TopLeftOffset" v:prompt="" v:val="VT0(0):26"/>
						<v:ud v:nameU="TopRightOffset" v:prompt="" v:val="VT0(0):26"/>
						<v:ud v:nameU="BotLeftOffset" v:prompt="" v:val="VT0(0):26"/>
						<v:ud v:nameU="BotRightOffset" v:prompt="" v:val="VT0(0):26"/>
						<v:ud v:nameU="visVersion" v:prompt="" v:val="VT0(15):26"/>
					</v:userDefs>
					<path d="M4.58 531.58 L41.18 531.58 A4.57493 4.57493 -180 0 0 45.75 527 L45.75 516.15 A4.57493 4.57493 -180 0
								 0 41.18 511.58 L4.58 511.58 A4.57493 4.57493 -180 0 0 -0 516.15 L0 527 A4.57493 4.57493 -180 0 0
								 4.58 531.58 Z" class="st5"/>
				</g>
			</g>
			<g id="group18-48" transform="translate(238.5,-229.123)" v:mID="18" v:groupContext="group">
				<title>Sheet.18</title>
				<g id="shape19-49" v:mID="19" v:groupContext="shape" transform="translate(45.75,1043.16) rotate(180)">
					<title>Rounded Rectangle</title>
					<v:userDefs>
						<v:ud v:nameU="CTypeTopLeftSnip" v:prompt="" v:val="VT0(0):5"/>
						<v:ud v:nameU="CTypeTopRightSnip" v:prompt="" v:val="VT0(0):5"/>
						<v:ud v:nameU="CTypeBotLeftSnip" v:prompt="" v:val="VT0(0):5"/>
						<v:ud v:nameU="CTypeBotRightSnip" v:prompt="" v:val="VT0(0):5"/>
						<v:ud v:nameU="CornerLockHoriz" v:prompt="" v:val="VT0(1):5"/>
						<v:ud v:nameU="CornerLockVert" v:prompt="" v:val="VT0(1):5"/>
						<v:ud v:nameU="CornerLockDiag" v:prompt="" v:val="VT0(0):5"/>
						<v:ud v:nameU="TopLeftOffset" v:prompt="" v:val="VT0(0):26"/>
						<v:ud v:nameU="TopRightOffset" v:prompt="" v:val="VT0(0):26"/>
						<v:ud v:nameU="BotLeftOffset" v:prompt="" v:val="VT0(0):26"/>
						<v:ud v:nameU="BotRightOffset" v:prompt="" v:val="VT0(0):26"/>
						<v:ud v:nameU="visVersion" v:prompt="" v:val="VT0(15):26"/>
					</v:userDefs>
					<path d="M4.58 531.58 L41.18 531.58 A4.57493 4.57493 -180 0 0 45.75 527 L45.75 516.15 A4.57493 4.57493 -180 0
								 0 41.18 511.58 L4.58 511.58 A4.57493 4.57493 -180 0 0 -0 516.15 L0 527 A4.57493 4.57493 -180 0 0
								 4.58 531.58 Z" class="st5"/>
				</g>
			</g>
			<g id="shape20-51" v:mID="20" v:groupContext="shape" transform="translate(237.75,-283.5)">
				<title>Sheet.20</title>
				<desc>Interface</desc>
				<v:userDefs/>
				<v:textBlock v:margins="rect(4,4,4,4)"/>
				<v:textRect cx="22.875" cy="521.582" width="45.76" height="20"/>
				<rect x="0" y="511.582" width="45.75" height="20" class="st8"/>
				<text x="6.2" y="523.98" class="st10" v:langID="1033"><v:paragraph v:horizAlign="1"/><v:tabList/>Interface</text>			</g>
			<g id="shape21-54" v:mID="21" v:groupContext="shape" transform="translate(4.875,-134.25)">
				<title>Rectangle</title>
				<desc>UART</desc>
				<v:userDefs>
					<v:ud v:nameU="visVersion" v:val="VT0(15):26"/>
				</v:userDefs>
				<v:textBlock v:margins="rect(4,4,4,4)"/>
				<v:textRect cx="40.5" cy="504.395" width="81" height="54.375"/>
				<rect x="0" y="477.207" width="80.9999" height="54.375" class="st2"/>
				<text x="24.17" y="507.99" class="st11" v:langID="1033"><v:paragraph v:horizAlign="1"/><v:tabList/>UART</text>			</g>
			<g id="shape22-57" v:mID="22" v:groupContext="shape" transform="translate(4.875,-197.6)">
				<title>Rectangle.39</title>
				<desc>I2C</desc>
				<v:userDefs>
					<v:ud v:nameU="visVersion" v:val="VT0(15):26"/>
				</v:userDefs>
				<v:textBlock v:margins="rect(4,4,4,4)"/>
				<v:textRect cx="40.5" cy="504.395" width="81" height="54.375"/>
				<rect x="0" y="477.207" width="80.9999" height="54.375" class="st2"/>
				<text x="31.16" y="507.99" class="st11" v:langID="1033"><v:paragraph v:horizAlign="1"/><v:tabList/>I2C</text>			</g>
			<g id="shape23-60" v:mID="23" v:groupContext="shape" transform="translate(4.875,-404.625)">
				<title>Rectangle.40</title>
				<desc>CAN</desc>
				<v:userDefs>
					<v:ud v:nameU="visVersion" v:val="VT0(15):26"/>
				</v:userDefs>
				<v:textBlock v:margins="rect(4,4,4,4)"/>
				<v:textRect cx="40.5" cy="504.395" width="81" height="54.375"/>
				<rect x="0" y="477.207" width="80.9999" height="54.375" class="st2"/>
				<text x="27.83" y="507.99" class="st11" v:langID="1033"><v:paragraph v:horizAlign="1"/><v:tabList/>CAN</text>			</g>
			<g id="shape24-63" v:mID="24" v:groupContext="shape" transform="translate(4.875,-260.625)">
				<title>Rectangle.41</title>
				<desc>USB</desc>
				<v:userDefs>
					<v:ud v:nameU="visVersion" v:val="VT0(15):26"/>
				</v:userDefs>
				<v:textBlock v:margins="rect(4,4,4,4)"/>
				<v:textRect cx="40.5" cy="504.395" width="81" height="54.375"/>
				<rect x="0" y="477.207" width="80.9999" height="54.375" class="st2"/>
				<text x="28.16" y="507.99" class="st11" v:langID="1033"><v:paragraph v:horizAlign="1"/><v:tabList/>USB</text>			</g>
			<g id="group25-66" transform="translate(238.5,-283.123)" v:mID="25" v:groupContext="group">
				<title>Sheet.25</title>
				<g id="shape26-67" v:mID="26" v:groupContext="shape" transform="translate(45.75,1043.16) rotate(180)">
					<title>Rounded Rectangle</title>
					<v:userDefs>
						<v:ud v:nameU="CTypeTopLeftSnip" v:prompt="" v:val="VT0(0):5"/>
						<v:ud v:nameU="CTypeTopRightSnip" v:prompt="" v:val="VT0(0):5"/>
						<v:ud v:nameU="CTypeBotLeftSnip" v:prompt="" v:val="VT0(0):5"/>
						<v:ud v:nameU="CTypeBotRightSnip" v:prompt="" v:val="VT0(0):5"/>
						<v:ud v:nameU="CornerLockHoriz" v:prompt="" v:val="VT0(1):5"/>
						<v:ud v:nameU="CornerLockVert" v:prompt="" v:val="VT0(1):5"/>
						<v:ud v:nameU="CornerLockDiag" v:prompt="" v:val="VT0(0):5"/>
						<v:ud v:nameU="TopLeftOffset" v:prompt="" v:val="VT0(0):26"/>
						<v:ud v:nameU="TopRightOffset" v:prompt="" v:val="VT0(0):26"/>
						<v:ud v:nameU="BotLeftOffset" v:prompt="" v:val="VT0(0):26"/>
						<v:ud v:nameU="BotRightOffset" v:prompt="" v:val="VT0(0):26"/>
						<v:ud v:nameU="visVersion" v:prompt="" v:val="VT0(15):26"/>
					</v:userDefs>
					<path d="M4.58 531.58 L41.18 531.58 A4.57493 4.57493 -180 0 0 45.75 527 L45.75 516.15 A4.57493 4.57493 -180 0
								 0 41.18 511.58 L4.58 511.58 A4.57493 4.57493 -180 0 0 -0 516.15 L0 527 A4.57493 4.57493 -180 0 0
								 4.58 531.58 Z" class="st12"/>
				</g>
			</g>
			<g id="shape27-69" v:mID="27" v:groupContext="shape" transform="translate(108.375,-221.078)">
				<title>Sheet.27</title>
				<path d="M162.52 523.78 L162.69 531.58 L256.5 531.58 L256.5 249.03 L0 249.03 L0 397.31 L162.52 523.78 Z"
						class="st6"/>
				<path d="M162.52 523.78 L162.69 531.58 L256.5 531.58 L256.5 249.03 L0 249.03 L0 397.31" class="st13"/>
			</g>
			<g id="shape28-72" v:mID="28" v:groupContext="shape" transform="translate(108.375,-303.123)">
				<title>Sheet.28</title>
				<path d="M159.75 531.58 L159.75 475.08 L0 475.08 L159.75 531.58 Z" class="st6"/>
				<path d="M159.75 531.58 L159.75 475.08 L0 475.08" class="st13"/>
			</g>
			<g id="group29-75" transform="translate(238.5,-159.623)" v:mID="29" v:groupContext="group">
				<title>Sheet.29</title>
				<g id="shape30-76" v:mID="30" v:groupContext="shape" transform="translate(45.75,1043.16) rotate(180)">
					<title>Rounded Rectangle</title>
					<v:userDefs>
						<v:ud v:nameU="CTypeTopLeftSnip" v:prompt="" v:val="VT0(0):5"/>
						<v:ud v:nameU="CTypeTopRightSnip" v:prompt="" v:val="VT0(0):5"/>
						<v:ud v:nameU="CTypeBotLeftSnip" v:prompt="" v:val="VT0(0):5"/>
						<v:ud v:nameU="CTypeBotRightSnip" v:prompt="" v:val="VT0(0):5"/>
						<v:ud v:nameU="CornerLockHoriz" v:prompt="" v:val="VT0(1):5"/>
						<v:ud v:nameU="CornerLockVert" v:prompt="" v:val="VT0(1):5"/>
						<v:ud v:nameU="CornerLockDiag" v:prompt="" v:val="VT0(0):5"/>
						<v:ud v:nameU="TopLeftOffset" v:prompt="" v:val="VT0(0):26"/>
						<v:ud v:nameU="TopRightOffset" v:prompt="" v:val="VT0(0):26"/>
						<v:ud v:nameU="BotLeftOffset" v:prompt="" v:val="VT0(0):26"/>
						<v:ud v:nameU="BotRightOffset" v:prompt="" v:val="VT0(0):26"/>
						<v:ud v:nameU="visVersion" v:prompt="" v:val="VT0(15):26"/>
					</v:userDefs>
					<path d="M4.58 531.58 L41.18 531.58 A4.57493 4.57493 -180 0 0 45.75 527 L45.75 516.15 A4.57493 4.57493 -180 0
								 0 41.18 511.58 L4.58 511.58 A4.57493 4.57493 -180 0 0 -0 516.15 L0 527 A4.57493 4.57493 -180 0 0
								 4.58 531.58 Z" class="st5"/>
				</g>
			</g>
			<g id="shape31-78" v:mID="31" v:groupContext="shape" transform="translate(-270.205,228.457) rotate(-90)">
				<title>Sheet.31</title>
				<path d="M0 531.58 L47.5 531.58 L0 531.58 Z" class="st6"/>
				<path d="M0 531.58 L47.5 531.58" class="st7"/>
			</g>
			<g id="shape32-81" v:mID="32" v:groupContext="shape" transform="translate(238.5,-256.125)">
				<title>Sheet.32</title>
				<desc>Interface</desc>
				<v:userDefs/>
				<v:textBlock v:margins="rect(4,4,4,4)"/>
				<v:textRect cx="22.875" cy="521.582" width="45.76" height="20"/>
				<rect x="0" y="511.582" width="45.75" height="20" class="st8"/>
				<text x="6.2" y="523.98" class="st10" v:langID="1033"><v:paragraph v:horizAlign="1"/><v:tabList/>Interface</text>			</g>
			<g id="shape33-84" v:mID="33" v:groupContext="shape" transform="translate(238.5,-229.125)">
				<title>Sheet.33</title>
				<desc>Interface</desc>
				<v:userDefs/>
				<v:textBlock v:margins="rect(4,4,4,4)"/>
				<v:textRect cx="22.875" cy="521.582" width="45.76" height="20"/>
				<rect x="0" y="511.582" width="45.75" height="20" class="st8"/>
				<text x="6.2" y="523.98" class="st10" v:langID="1033"><v:paragraph v:horizAlign="1"/><v:tabList/>Interface</text>			</g>
			<g id="shape34-87" v:mID="34" v:groupContext="shape" transform="translate(238.5,-159.625)">
				<title>Sheet.34</title>
				<desc>Interface</desc>
				<v:userDefs/>
				<v:textBlock v:margins="rect(4,4,4,4)"/>
				<v:textRect cx="22.875" cy="521.582" width="45.76" height="20"/>
				<rect x="0" y="511.582" width="45.75" height="20" class="st8"/>
				<text x="6.2" y="523.98" class="st10" v:langID="1033"><v:paragraph v:horizAlign="1"/><v:tabList/>Interface</text>			</g>
			<g id="shape35-90" v:mID="35" v:groupContext="shape" transform="translate(238.875,-132.813)">
				<title>Sheet.35</title>
				<desc>Interface</desc>
				<v:userDefs/>
				<v:textBlock v:margins="rect(4,4,4,4)"/>
				<v:textRect cx="22.875" cy="521.582" width="45.76" height="20"/>
				<rect x="0" y="511.582" width="45.75" height="20" class="st8"/>
				<text x="6.2" y="523.98" class="st10" v:langID="1033"><v:paragraph v:horizAlign="1"/><v:tabList/>Interface</text>			</g>
			<g id="shape36-93" v:mID="36" v:groupContext="shape" transform="translate(38.8125,-382.493)">
				<title>Circle</title>
				<v:userDefs>
					<v:ud v:nameU="visVersion" v:val="VT0(15):26"/>
				</v:userDefs>
				<path d="M0 525.02 A6.565 6.565 0 1 1 13.13 525.02 A6.565 6.565 0 0 1 0 525.02 Z" class="st2"/>
			</g>
			<g id="shape37-95" v:mID="37" v:groupContext="shape" transform="translate(38.8125,-353.243)">
				<title>Circle.45</title>
				<v:userDefs>
					<v:ud v:nameU="visVersion" v:val="VT0(15):26"/>
				</v:userDefs>
				<path d="M0 525.02 A6.565 6.565 0 1 1 13.13 525.02 A6.565 6.565 0 0 1 0 525.02 Z" class="st2"/>
			</g>
			<g id="shape38-97" v:mID="38" v:groupContext="shape" transform="translate(38.8125,-323.993)">
				<title>Circle.46</title>
				<v:userDefs>
					<v:ud v:nameU="visVersion" v:val="VT0(15):26"/>
				</v:userDefs>
				<path d="M0 525.02 A6.565 6.565 0 1 1 13.13 525.02 A6.565 6.565 0 0 1 0 525.02 Z" class="st2"/>
			</g>
			<g id="shape39-99" v:mID="39" v:groupContext="shape" transform="translate(0.5,-96.6249)">
				<title>Sheet.39</title>
				<desc>External Peripherals</desc>
				<v:userDefs/>
				<v:textBlock v:margins="rect(4,4,4,4)"/>
				<v:textRect cx="45" cy="521.582" width="90" height="20"/>
				<rect x="0" y="511.582" width="89.9999" height="20" class="st8"/>
				<text x="15.65" y="516.78" class="st3" v:langID="1033"><v:paragraph v:horizAlign="1"/><v:tabList/>External<v:lf/><tspan
							x="4.54" dy="1.2em" class="st4">Peripherals</tspan></text>			</g>
			<g id="shape40-103" v:mID="40" v:groupContext="shape" transform="translate(-270.205,351.957) rotate(-90)">
				<title>Sheet.40</title>
				<path d="M0 531.58 L49.5 531.58 L0 531.58 Z" class="st6"/>
				<path d="M0 531.58 L49.5 531.58" class="st7"/>
			</g>
			<g id="shape41-106" v:mID="41" v:groupContext="shape" transform="translate(-270.566,447.317) rotate(-89.5896)">
				<title>Sheet.41</title>
				<path d="M0 531.58 L52.36 531.58 L0 531.58 Z" class="st6"/>
				<path d="M0 531.58 L52.36 531.58" class="st7"/>
			</g>
			<g id="shape42-109" v:mID="42" v:groupContext="shape" transform="translate(-270.205,255.457) rotate(-90)">
				<title>Sheet.42</title>
				<path d="M0 531.58 L7 531.58 L0 531.58 Z" class="st6"/>
				<path d="M0 531.58 L7 531.58" class="st7"/>
			</g>
			<g id="shape43-112" v:mID="43" v:groupContext="shape" transform="translate(-270.205,282.457) rotate(-90)">
				<title>Sheet.43</title>
				<path d="M0 531.58 L7 531.58 L0 531.58 Z" class="st6"/>
				<path d="M0 531.58 L7 531.58" class="st7"/>
			</g>
			<g id="shape44-115" v:mID="44" v:groupContext="shape" transform="translate(-270.205,378.77) rotate(-90)">
				<title>Sheet.44</title>
				<path d="M0 531.58 L6.81 531.58 L0 531.58 Z" class="st6"/>
				<path d="M0 531.58 L6.81 531.58" class="st7"/>
			</g>
			<g id="shape45-118" v:mID="45" v:groupContext="shape" transform="translate(-261.58,255.457) rotate(-90)">
				<title>Sheet.45</title>
				<path d="M0 531.58 L7 531.58 L0 531.58 Z" class="st6"/>
				<path d="M0 531.58 L7 531.58" class="st13"/>
			</g>
			<g id="shape46-121" v:mID="46" v:groupContext="shape" transform="translate(-261.04,282.457) rotate(-90)">
				<title>Sheet.46</title>
				<path d="M0 531.58 L7 531.58 L0 531.58 Z" class="st6"/>
				<path d="M0 531.58 L7 531.58" class="st13"/>
			</g>
		</g>
	</g>
</svg>
